<svg width="200" height="200" viewBox="0 0 200 200" fill="none" xmlns="http://www.w3.org/2000/svg">
<rect width="200" height="200" fill="#F1F3F6"/>
<path d="M164.355 66.7742H126.548C124.269 66.7742 122.548 67.3548 121.387 68.5161C120.226 69.6344 119.645 71.2903 119.645 73.4839V150H102.871V73.4839C102.871 70.6021 103.237 68.0215 103.968 65.7419C104.699 63.4624 105.667 61.4624 106.871 59.7419C108.118 57.9785 109.538 56.4946 111.129 55.2903C112.72 54.043 114.376 53.0323 116.097 52.2581C117.86 51.4839 119.624 50.9247 121.387 50.5806C123.151 50.1935 124.828 50 126.419 50H164.355V66.7742Z" fill="#27303E"/>
<path d="M88.2903 126.452C88.2903 128.043 88.0968 129.72 87.7097 131.484C87.3656 133.247 86.8064 135.011 86.0323 136.774C85.2581 138.495 84.2473 140.151 83 141.742C81.7957 143.333 80.3118 144.753 78.5484 146C76.828 147.204 74.828 148.172 72.5484 148.903C70.2688 149.634 67.6882 150 64.8064 150H34.5484C32.957 150 31.2796 149.828 29.5161 149.484C27.7527 149.097 25.9892 148.516 24.2258 147.742C22.5054 146.968 20.8495 145.979 19.2581 144.774C17.6667 143.527 16.2473 142.043 15 140.323C13.7957 138.559 12.828 136.538 12.0968 134.258C11.3656 131.935 11 129.333 11 126.452V50.7742H27.7742V126.452C27.7742 128.516 28.4194 130.172 29.7097 131.419C31 132.624 32.6129 133.226 34.5484 133.226H64.8064C66.914 133.226 68.5484 132.602 69.7097 131.355C70.914 130.108 71.5161 128.473 71.5161 126.452V103.742C71.5161 101.634 70.8925 100 69.6452 98.8387C68.3979 97.6344 66.7849 97.0323 64.8064 97.0323H34.5484V80.2581H64.8064C66.3978 80.2581 68.0753 80.4516 69.8387 80.8387C71.6021 81.1828 73.3441 81.7419 75.0645 82.5161C76.828 83.2903 78.5054 84.3011 80.0968 85.5484C81.6882 86.7527 83.086 88.2366 84.2903 90C85.4946 91.7204 86.4624 93.7204 87.1936 96C87.9247 98.2796 88.2903 100.86 88.2903 103.742V126.452Z" fill="#27303E"/>
<path d="M171.71 150H188.484L188.613 80.2581H126.419V97.0323H171.581L171.71 150Z" fill="#27303E"/>
<path d="M171.71 66.7742H188.484V50.2581H171.71V66.7742Z" fill="#95C7A0"/>
</svg>
