<svg width="80" height="80" viewBox="0 0 80 80" fill="none" xmlns="http://www.w3.org/2000/svg">
<path d="M17.3623 55.626V0H32.0868V17.3623H55.6928C57.7407 17.3623 59.4101 17.9855 60.7012 19.2321C61.9922 20.4341 62.6377 22.1258 62.6377 24.3072V55.626C62.6377 57.7184 62.0145 59.4101 60.768 60.7012C59.5659 61.9922 57.8742 62.6377 55.6928 62.6377H24.374C22.3706 62.6377 20.7012 62.0145 19.3656 60.7679C18.0301 59.4769 17.3623 57.7629 17.3623 55.626Z" fill="#95C7A0"/>
<path d="M80 55.626C80 57.2732 79.7997 59.0095 79.399 60.8347C79.0428 62.66 78.4641 64.4853 77.6628 66.3105C76.8614 68.0913 75.8152 69.8052 74.5242 71.4524C73.2777 73.0996 71.7418 74.5687 69.9165 75.8598C68.1358 77.1063 66.0657 78.108 63.7062 78.8648C61.3467 79.6216 58.6756 80 55.6928 80H24.374C22.7268 80 20.9905 79.8219 19.1653 79.4658C17.34 79.0651 15.5147 78.4641 13.6895 77.6628C11.9087 76.8614 10.1948 75.8375 8.54758 74.591C6.90039 73.2999 5.43127 71.7641 4.14023 69.9833C2.89371 68.158 1.89204 66.0657 1.13523 63.7062C0.378408 61.3022 0 58.6088 0 55.626V0H17.3623V55.626C17.3623 57.7629 18.0301 59.4769 19.3656 60.7679C20.7012 62.0145 22.3706 62.6377 24.374 62.6377H55.6928C57.8742 62.6377 59.5659 61.9922 60.7679 60.7012C62.0145 59.4101 62.6377 57.7184 62.6377 55.626V24.3072C62.6377 22.1258 61.9922 20.4341 60.7012 19.2321C59.4101 17.9855 57.7407 17.3623 55.6928 17.3623H32.0868V0H55.6928C57.34 0 59.0762 0.200333 60.9015 0.601001C62.7268 0.95715 64.5298 1.53589 66.3105 2.33723C68.1358 3.13856 69.872 4.18475 71.5192 5.47579C73.1664 6.72231 74.6132 8.25821 75.8598 10.0835C77.1063 11.8642 78.108 13.9343 78.8648 16.2938C79.6216 18.6533 80 21.3244 80 24.3072V55.626Z" fill="#27303E"/>
<rect x="32.09" y="32.09" width="15.82" height="15.82" rx="2" fill="#27303E"/>
</svg>
