<svg width="549" height="101" viewBox="0 0 549 101" fill="none" xmlns="http://www.w3.org/2000/svg">
<path d="M488 100.77H512.195L546.002 67.7048C547.895 65.9622 548.777 63.784 548.648 61.1702C548.562 59.9504 548.261 58.8177 547.744 57.7722C547.185 56.6831 546.433 55.7682 545.486 55.0276L514.84 30H488L527.486 62.2157L488 100.77Z" fill="#95C7A0"/>
<path d="M453.871 16.7742H416.065C413.785 16.7742 412.065 17.3548 410.903 18.5161C409.742 19.6344 409.161 21.2903 409.161 23.4839V100H392.387V23.4839C392.387 20.6021 392.753 18.0215 393.484 15.7419C394.215 13.4624 395.183 11.4624 396.387 9.74194C397.634 7.97849 399.054 6.49462 400.645 5.29032C402.237 4.04301 403.892 3.03226 405.613 2.25806C407.376 1.48387 409.14 0.924731 410.903 0.580645C412.667 0.193548 414.344 0 415.935 0H453.871V16.7742ZM478 100H461.226L461.097 47.0323H415.935V30.2581H478.129L478 100ZM478 16.7742H461.226V0.258065H478V16.7742Z" fill="#95C7A0"/>
<path d="M382.71 100H358.516L324.71 67.3548C322.817 65.6344 321.935 63.4839 322.065 60.9032C322.151 59.6989 322.452 58.5806 322.968 57.5484C323.527 56.4731 324.28 55.5699 325.226 54.8387L355.871 30.129H382.71L343.226 61.9355L382.71 100Z" fill="#95C7A0"/>
<path d="M317.806 100H301.032V0.7742H317.806V100Z" fill="#27303E"/>
<path d="M286.903 100H241.419C239.097 100 236.559 99.5914 233.806 98.7742C231.054 97.957 228.495 96.6237 226.129 94.7742C223.806 92.8817 221.849 90.4516 220.258 87.4839C218.71 84.4731 217.935 80.7957 217.935 76.4516V53.7419C217.935 52.1505 218.108 50.4731 218.452 48.7097C218.839 46.9462 219.419 45.2043 220.194 43.4839C220.968 41.7204 221.957 40.043 223.161 38.4516C224.409 36.8602 225.892 35.4624 227.613 34.2581C229.376 33.0538 231.398 32.086 233.677 31.3548C235.957 30.6237 238.538 30.2581 241.419 30.2581H286.903V47.0323H241.419C239.226 47.0323 237.548 47.5914 236.387 48.7097C235.269 49.828 234.71 51.5484 234.71 53.871V76.4516C234.71 78.6452 235.29 80.3226 236.452 81.4839C237.613 82.6452 239.312 83.2258 241.548 83.2258H286.903V100Z" fill="#27303E"/>
<path d="M205.032 76.9032C205.032 79.2258 204.624 81.7419 203.806 84.4516C202.989 87.1183 201.656 89.6129 199.806 91.9355C198 94.2151 195.613 96.129 192.645 97.6774C189.72 99.2258 186.151 100 181.935 100H151.677C149.355 100 146.839 99.5914 144.129 98.7742C141.462 97.957 138.968 96.6452 136.645 94.8387C134.366 92.9893 132.452 90.6022 130.903 87.6774C129.355 84.7097 128.581 81.1183 128.581 76.9032C128.581 74.5807 128.989 72.0645 129.806 69.3548C130.624 66.6452 131.935 64.1505 133.742 61.871C135.591 59.5484 137.978 57.6129 140.903 56.0645C143.871 54.5161 147.462 53.7419 151.677 53.7419H181.935V69.7419H151.677C149.398 69.7419 147.634 70.4516 146.387 71.871C145.14 73.2473 144.516 74.9678 144.516 77.0323C144.516 79.2258 145.226 80.9462 146.645 82.1936C148.108 83.3979 149.828 84 151.806 84H181.935C184.215 84 185.978 83.3118 187.226 81.9355C188.473 80.5592 189.097 78.8387 189.097 76.7742V53.3548C189.097 51.1613 188.409 49.4194 187.032 48.129C185.699 46.8387 184 46.1936 181.935 46.1936H145.097V30.2581H181.935C184.258 30.2581 186.753 30.6667 189.419 31.4839C192.129 32.3011 194.624 33.6344 196.903 35.4839C199.226 37.2903 201.161 39.6774 202.71 42.6452C204.258 45.5699 205.032 49.1398 205.032 53.3548V76.9032Z" fill="#27303E"/>
<path d="M122.258 100H114.774C112.366 100 109.785 99.5914 107.032 98.7742C104.323 97.957 101.785 96.6237 99.4194 94.7742C97.0538 92.8817 95.0968 90.4516 93.5484 87.4839C92 84.4731 91.2258 80.7957 91.2258 76.4516V0.7742H108V76.4516C108 78.5161 108.645 80.1721 109.935 81.4194C111.226 82.6237 112.839 83.2258 114.774 83.2258H122.258V100Z" fill="#27303E"/>
<path d="M77.2903 76.4516C77.2903 78.043 77.0968 79.7204 76.7097 81.4839C76.3656 83.2473 75.8064 85.0108 75.0323 86.7742C74.2581 88.4946 73.2473 90.1505 72 91.7419C70.7957 93.3333 69.3118 94.7527 67.5484 96C65.828 97.2043 63.828 98.1721 61.5484 98.9032C59.2688 99.6344 56.6882 100 53.8064 100H23.5484C21.957 100 20.2796 99.828 18.5161 99.4839C16.7527 99.0968 14.9892 98.5161 13.2258 97.7419C11.5054 96.9678 9.84946 95.9785 8.25806 94.7742C6.66667 93.5269 5.24731 92.043 4 90.3226C2.7957 88.5591 1.82796 86.5376 1.09677 84.2581C0.365591 81.9355 0 79.3333 0 76.4516V0.7742H16.7742V76.4516C16.7742 78.5161 17.4194 80.1721 18.7097 81.4194C20 82.6237 21.6129 83.2258 23.5484 83.2258H53.8064C55.914 83.2258 57.5484 82.6022 58.7097 81.3548C59.914 80.1075 60.5161 78.4731 60.5161 76.4516V53.7419C60.5161 51.6344 59.8925 50 58.6452 48.8387C57.3979 47.6344 55.7849 47.0323 53.8064 47.0323H23.5484V30.2581H53.8064C55.3978 30.2581 57.0753 30.4516 58.8387 30.8387C60.6021 31.1828 62.3441 31.7419 64.0645 32.5161C65.828 33.2903 67.5054 34.3011 69.0968 35.5484C70.6882 36.7527 72.086 38.2366 73.2903 40C74.4946 41.7204 75.4624 43.7204 76.1936 46C76.9247 48.2796 77.2903 50.8602 77.2903 53.7419V76.4516Z" fill="#27303E"/>
</svg>
